<?xml version="1.0" encoding="UTF-8"?> <svg xmlns="http://www.w3.org/2000/svg" viewBox="0 0 280 280"><defs><style> .cls-1 { fill: #c1e7f1; } .cls-2 { fill: #f3f1f2; } .cls-3 { fill: #f36f4e; } .cls-4 { fill: none; stroke: #f9a665; stroke-miterlimit: 10; stroke-width: 3.5px; } .cls-5 { fill: #f9a665; } </style></defs><title>Aspen-resourcelibrary-v4-MEL</title><g id="Layer_1" data-name="Layer 1"><circle class="cls-1" cx="140" cy="140" r="125.83"></circle><g><rect class="cls-2" x="82.89" y="81.48" width="114.22" height="132.56"></rect><rect class="cls-3" x="102.74" y="101.37" width="74.52" height="22.45"></rect><line class="cls-4" x1="102.74" y1="138.73" x2="177.26" y2="138.73"></line><line class="cls-4" x1="102.74" y1="154.56" x2="177.26" y2="154.56"></line><line class="cls-4" x1="102.74" y1="170.39" x2="177.26" y2="170.39"></line><line class="cls-4" x1="102.74" y1="186.23" x2="152.94" y2="186.23"></line><path class="cls-3" d="M89.84,66H190.16a7,7,0,0,1,7,7v8.57a0,0,0,0,1,0,0H82.89a0,0,0,0,1,0,0V72.91A7,7,0,0,1,89.84,66Z"></path><circle class="cls-5" cx="93.56" cy="73.72" r="2.08"></circle><circle class="cls-5" cx="102.74" cy="73.72" r="2.08"></circle><circle class="cls-5" cx="111.91" cy="73.72" r="2.08"></circle></g></g></svg> 